<svg id="outline" height="512" viewBox="0 0 512 512" width="512" xmlns="http://www.w3.org/2000/svg"><path d="m25.2934 138.94263a17.5104 17.5104 0 0 0 9.72906 22.87866l31.6958 12.67771 17.68408 26.52637a51.58205 51.58205 0 0 0 87.14942-2.07422l8.15234-13.58789a202.29061 202.29061 0 0 0 -.95508 71.8086l12.67969 76.07617-93.08887 93.08888a8.0009 8.0009 0 0 0 -.853 10.30762l40 56a8.00135 8.00135 0 0 0 6.50976 3.34961h16a8.00008 8.00008 0 0 0 8-8v-44.48047l83.02881-76.10937a40.09837 40.09837 0 0 0 12.97117-29.4863v-51.11722l48 60v141.19336a8.00008 8.00008 0 0 0 8 8h80a8.00008 8.00008 0 0 0 8-8v-16a8.0009 8.0009 0 0 0 -3.20019-6.40039l-28.79981-21.59961v-113.74514a39.7772 39.7772 0 0 0 -7.45068-23.249l-71.96582-100.75293 10.65527-47.94922 15.16358 27.29492a59.10915 59.10915 0 0 0 88.59423 17.44923l24.88672-19.90918 40.28858-13.42871a17.26 17.26 0 0 0 10.58838-22.80639 23.96589 23.96589 0 0 0 9.23974-18.90357v-8a8.00008 8.00008 0 0 0 -8-8v-40a7.99947 7.99947 0 0 0 -.84472-3.57812l-7.15528-14.31055v-22.11134a8.00008 8.00008 0 0 0 -8-8h-24a8.00008 8.00008 0 0 0 -8 8v8h-64a8.00016 8.00016 0 0 0 -7.80957 9.73535l13.83667 62.26465h-6.0271a8.00008 8.00008 0 0 0 -8 8v8a24.03238 24.03238 0 0 0 14.43823 22.00732l-11.14624 6.688-29.50341-59.00587a31.82583 31.82583 0 0 0 -28.62159-17.68945h-34.54321a23.88238 23.88238 0 0 0 1.37622-8v-11.05493l3.37891-1.68921a22.70987 22.70987 0 0 0 12.62109-20.42285v-14.833a8.00008 8.00008 0 0 0 -8-8h-36.58349a27.4173 27.4173 0 0 0 -24.522 39.67871l5.10547 10.21v6.11133a23.88535 23.88535 0 0 0 1.37616 8h-43.12907a31.98558 31.98558 0 0 0 -28.09277 16.67671l-35.41943 64.93555-15.09363-18.8667a24.03737 24.03737 0 0 0 16.35876-22.74561v-8a8.00008 8.00008 0 0 0 -8-8h-.67938a48.10628 48.10628 0 0 0 -39.32062-39.32056v-8.67944h8v-16h-32v16h8v8.67944a48.10631 48.10631 0 0 0 -39.32058 39.32056h-.67938a8.00008 8.00008 0 0 0 -8 8v8a23.96659 23.96659 0 0 0 9.29678 18.94849zm15.67193 8.02319a1.54092 1.54092 0 0 1 .57178-2.97168h50.61475l2.84472 3.55591-23.36438 11.68213zm156.59375 31.76367 10.19873-40.79492a7.98963 7.98963 0 0 0 .23316-1.94043h.00561v-40h8v24a7.99721 7.99721 0 0 0 1.97949 5.26758l28 32a7.99889 7.99889 0 0 0 12.041 0l28-32a7.99716 7.99716 0 0 0 1.97949-5.26758v-24h8v39.12158l-15.1123 68.00537-14.66895 9.7793-11.5625-17.34375a7.99959 7.99959 0 0 0 -13.3125 0l-12.61084 18.916-35.496-11.83252a186.348 186.348 0 0 1 4.32561-23.91063zm54.4375-65.52148 15.53833 8.87939-15.53833 17.7583-15.53833-17.7583zm20-6.99976-12-6.85718v-3.35693h12zm-28-6.85718-12 6.85718v-10.21411h12zm-95.8833 380.64307-33.668-47.13476 6.7912-6.79126 30.76007 18.45605v35.47zm243.8833-4v4h-64v-10.23364l38.55347-12.85108zm-36.4707-159.69531a23.86783 23.86783 0 0 1 4.4707 13.95019v111.97876l-32 10.66651v-108.90015a7.998 7.998 0 0 0 -1.75293-4.99707l-64-80a7.99995 7.99995 0 0 0 -14.24707 4.99707v73.92386a24.06 24.06 0 0 1 -7.78271 17.69141l-81.22126 74.45239-26.0935-15.65625 72.75421-72.75415a8.0003 8.0003 0 0 0 2.23438-6.97266l-13.35645-80.13774a186.83444 186.83444 0 0 1 -2.53467-30.627c0-1.59912.03241-3.19751.07367-4.79565l37.39655 12.46565a8.00033 8.00033 0 0 0 9.186-3.15234l9.34375-14.01562 9.34375 14.01562a7.9968 7.9968 0 0 0 11.09375 2.21875l17.55469-11.70312zm115.583-161.77442-36.17237 12.05664-10.94018-14.58691h46.7019a1.29848 1.29848 0 0 1 .41065 2.53027zm8.88769-26.53027a8.00917 8.00917 0 0 1 -8 8h-80a8.00917 8.00917 0 0 1 -8-8zm-32-16v-23.355l7.00244 5.602a8.00042 8.00042 0 0 0 9.99512 0l7.00244-5.602v23.355zm8-56v-16h8v16a7.99942 7.99942 0 0 0 .84473 3.57813l5.10742 10.21484-9.95214 7.96189-9.95215-7.96191 5.10743-10.21484a7.99954 7.99954 0 0 0 .84472-3.57811zm-70.02685 0h53.08252l-6.21093 12.42186a7.99934 7.99934 0 0 0 -.84473 3.57812v40h-33.58252zm-58.49512 48.8457 33.3667 66.73243a8.00138 8.00138 0 0 0 11.27148 3.28222l33.813-20.28833 15.01856 20.02466-19.94629 15.957a43.10893 43.10893 0 0 1 -64.6128-12.72558l-24.38867-43.90064v-37.92746h1.167a15.91384 15.91384 0 0 1 14.31103 8.8457zm-76.06152-72.8457h28.58349v6.833a6.79426 6.79426 0 0 1 -3.77637 6.11133l-7.80078 3.89941.00025.00049-.00122.00049a9.88671 9.88671 0 0 1 -13.2666-4.42285 8.00065 8.00065 0 0 0 -12.812-2.07911l-2.273 2.27295a11.35273 11.35273 0 0 1 11.3462-12.61572zm-3.41651 40v-11.62988a26.13651 26.13651 0 0 0 16 5.53222v6.09766a8 8 0 1 1 -16 0zm-119.2993 111.96875a7.99756 7.99756 0 0 0 6.32226-4.13769l41.17774-75.4922a15.99225 15.99225 0 0 1 14.04638-8.33887h1.75293v37.78394l-34.165 56.94165a35.58242 35.58242 0 0 1 -60.1167 1.43066l-14.0354-21.05371 21.53894-10.76929 16.53113 20.66382a7.984 7.984 0 0 0 6.94772 2.97169zm-24.70069-55.96875h-64a8.00917 8.00917 0 0 1 -8-8h80a8.00917 8.00917 0 0 1 -8 8zm-32-48a32.05832 32.05832 0 0 1 30.9878 24h-61.97559a32.0583 32.0583 0 0 1 30.98779-24z"/></svg>